<svg width="52" height="52" viewBox="0 0 52 52" fill="none" xmlns="http://www.w3.org/2000/svg">
<rect width="52" height="52" rx="12" fill="#1D8FF3"/>
<path fillRule="evenodd" clipRule="evenodd" d="M33.8246 12.5541C35.0471 12.5541 36.015 12.9065 36.7331 13.6019C37.0902 13.95 37.3712 14.3712 37.5576 14.8378C37.744 15.3045 37.8316 15.8061 37.8146 16.3097V39.4461H30.2981V28.9489H21.7001V39.4461H14.1836V13.5509C15.5242 12.8879 16.7012 12.5541 17.7101 12.5541C18.9325 12.5541 19.9005 12.9065 20.6185 13.6019C20.9759 13.9498 21.257 14.371 21.4435 14.8377C21.6299 15.3044 21.7173 15.806 21.7001 16.3097V23.1254H30.2981V13.5509C31.6342 12.8879 32.8158 12.5541 33.8246 12.5541Z" fill="white"/>
</svg>
